<mxfile host="app.diagrams.net" agent="Mozilla/5.0 (Windows NT 10.0; Win64; x64) AppleWebKit/537.36 (KHTML, like Gecko) Chrome/134.0.0.0 Safari/537.36" version="26.1.0">
  <diagram name="Page-1" id="ArmYcXabPrUdAqGekTpE">
    <mxGraphModel>
      <root>
        <mxCell id="0" />
        <mxCell id="1" parent="0" />
        <mxCell id="2" value="Threat Model Diagram Structure" style="whiteSpace=wrap;strokeWidth=2;verticalAlign=top;" vertex="1" parent="1">
          <mxGeometry x="8" y="8" width="560" height="889" as="geometry" />
        </mxCell>
        <mxCell id="3" value="Actor" style="whiteSpace=wrap;strokeWidth=2;" vertex="1" parent="2">
          <mxGeometry x="281" y="46" width="99" height="54" as="geometry" />
        </mxCell>
        <mxCell id="4" value="System" style="whiteSpace=wrap;strokeWidth=2;" vertex="1" parent="2">
          <mxGeometry x="275" y="198" width="110" height="54" as="geometry" />
        </mxCell>
        <mxCell id="5" value="Database" style="whiteSpace=wrap;strokeWidth=2;" vertex="1" parent="2">
          <mxGeometry x="389" y="350" width="126" height="54" as="geometry" />
        </mxCell>
        <mxCell id="6" value="Application Servers" style="whiteSpace=wrap;strokeWidth=2;" vertex="1" parent="2">
          <mxGeometry x="231" y="502" width="198" height="54" as="geometry" />
        </mxCell>
        <mxCell id="7" value="External System" style="whiteSpace=wrap;strokeWidth=2;" vertex="1" parent="2">
          <mxGeometry x="138" y="654" width="175" height="54" as="geometry" />
        </mxCell>
        <mxCell id="8" value="Firewall" style="whiteSpace=wrap;strokeWidth=2;" vertex="1" parent="2">
          <mxGeometry x="63" y="806" width="118" height="54" as="geometry" />
        </mxCell>
        <mxCell id="9" value="Third-party Service" style="whiteSpace=wrap;strokeWidth=2;" vertex="1" parent="2">
          <mxGeometry x="231" y="806" width="198" height="54" as="geometry" />
        </mxCell>
        <mxCell id="10" value="File System" style="whiteSpace=wrap;strokeWidth=2;" vertex="1" parent="2">
          <mxGeometry x="377" y="654" width="142" height="54" as="geometry" />
        </mxCell>
        <mxCell id="11" value="Accesses Data" style="curved=1;startArrow=none;endArrow=block;exitX=0.49;exitY=0.99;entryX=0.5;entryY=-0.01;" edge="1" parent="2" source="3" target="4">
          <mxGeometry relative="1" as="geometry">
            <Array as="points" />
          </mxGeometry>
        </mxCell>
        <mxCell id="12" value="Stores Data" style="curved=1;startArrow=none;endArrow=block;exitX=0.89;exitY=0.99;entryX=0.5;entryY=-0.01;" edge="1" parent="2" source="4" target="5">
          <mxGeometry relative="1" as="geometry">
            <Array as="points">
              <mxPoint x="452" y="301" />
            </Array>
          </mxGeometry>
        </mxCell>
        <mxCell id="13" value="Processes Data" style="curved=1;startArrow=none;endArrow=block;exitX=0;exitY=0.85;entryX=0.11;entryY=-0.01;" edge="1" parent="2" source="4" target="6">
          <mxGeometry relative="1" as="geometry">
            <Array as="points">
              <mxPoint x="112" y="301" />
              <mxPoint x="112" y="453" />
            </Array>
          </mxGeometry>
        </mxCell>
        <mxCell id="14" value="Manipulates Data" style="curved=1;startArrow=none;endArrow=block;exitX=0.5;exitY=0.99;entryX=0.72;entryY=-0.01;" edge="1" parent="2" source="5" target="6">
          <mxGeometry relative="1" as="geometry">
            <Array as="points">
              <mxPoint x="452" y="453" />
            </Array>
          </mxGeometry>
        </mxCell>
        <mxCell id="15" value="Communicates with" style="curved=1;startArrow=none;endArrow=block;exitX=0.31;exitY=0.99;entryX=0.5;entryY=-0.01;" edge="1" parent="2" source="6" target="7">
          <mxGeometry relative="1" as="geometry">
            <Array as="points">
              <mxPoint x="226" y="605" />
            </Array>
          </mxGeometry>
        </mxCell>
        <mxCell id="16" value="Receives Data" style="curved=1;startArrow=none;endArrow=block;exitX=0.29;exitY=0.99;entryX=0.5;entryY=-0.01;" edge="1" parent="2" source="7" target="8">
          <mxGeometry relative="1" as="geometry">
            <Array as="points">
              <mxPoint x="122" y="757" />
            </Array>
          </mxGeometry>
        </mxCell>
        <mxCell id="17" value="Sends Data" style="curved=1;startArrow=none;endArrow=block;exitX=0.71;exitY=0.99;entryX=0.5;entryY=-0.01;" edge="1" parent="2" source="7" target="9">
          <mxGeometry relative="1" as="geometry">
            <Array as="points">
              <mxPoint x="330" y="757" />
            </Array>
          </mxGeometry>
        </mxCell>
        <mxCell id="18" value="Accesses Resources" style="curved=1;startArrow=none;endArrow=block;exitX=0.71;exitY=0.99;entryX=0.5;entryY=-0.01;" edge="1" parent="2" source="6" target="10">
          <mxGeometry relative="1" as="geometry">
            <Array as="points">
              <mxPoint x="448" y="605" />
            </Array>
          </mxGeometry>
        </mxCell>
      </root>
    </mxGraphModel>
  </diagram>
</mxfile>
